# xmcd
#
# Track frame offsets:
#	150
#	18150
#	32525
#	45402
#	59587
#	82780
#	103300
#	117697
#	138750
#	156975
#	170350
#	185300
#	206502
#	222675
#	235100
#	253117
#	272850
#	286077
#	304495
#
# Disc length: 4283 seconds
#
# Revision: 0
# Processed by: cddbd v1.4PL0 Copyright (c) Steve Scherf et al.
# Submitted via: EasyCDDAExtractor 4.6.0.1
#
DISCID=1210b913
DTITLE=John Denver
DYEAR=1994
DGENRE=Country
TTITLE0=Leaving On A Jet Plane
TTITLE1=Rhymes And Reasons
TTITLE2=Follow Me
TTITLE3=Take Me Home Country Roads
TTITLE4=Sunshine On My Shoulders
TTITLE5=Poems, Prayers And Promises
TTITLE6=Starwood In Aspen
TTITLE7=Rocky Mountain High
TTITLE8=Farewell Andromeda
TTITLE9=Annie's Song
TTITLE10=Thank God I'm A Country Boy
TTITLE11=Back Home Again
TTITLE12=Calypso
TTITLE13=Baby You Look Good To Me Tonight
TTITLE14=Dancing With The Mountains
TTITLE15=Hold On Tightly
TTITLE16=Perhaps Love
TTITLE17=Dreamland Express
TTITLE18=Never A Doubt
EXTD=
EXTT0=
EXTT1=
EXTT2=
EXTT3=
EXTT4=
EXTT5=
EXTT6=
EXTT7=
EXTT8=
EXTT9=
EXTT10=
EXTT11=
EXTT12=
EXTT13=
EXTT14=
EXTT15=
EXTT16=
EXTT17=
EXTT18=
PLAYORDER=
